<?xml version="1.0" standalone="no"?>
<!DOCTYPE svg PUBLIC "-//W3C//DTD SVG 20010904//EN"
 "http://www.w3.org/TR/2001/REC-SVG-20010904/DTD/svg10.dtd">
<svg version="1.0" xmlns="http://www.w3.org/2000/svg"
 width="1080.000000pt" height="1080.000000pt" viewBox="0 0 1080.000000 1080.000000"
 preserveAspectRatio="xMidYMid meet">

<g transform="translate(0.000000,1080.000000) scale(0.100000,-0.100000)"
fill="#000000" stroke="none">
<path d="M3227 7309 c-360 -26 -711 -170 -1012 -414 -327 -266 -553 -658 -626
-1089 -19 -108 -20 -150 -16 -445 4 -288 7 -338 26 -426 87 -395 307 -770 592
-1010 314 -263 661 -406 1059 -436 87 -6 895 -9 2250 -6 2086 3 2116 4 2225
24 672 126 1205 585 1414 1218 72 219 91 353 91 658 0 319 -23 488 -95 705
-216 644 -766 1101 -1461 1214 -85 13 -4265 20 -4447 7z m4258 -394 c201 -31
378 -92 549 -191 367 -212 635 -582 725 -998 53 -243 45 -531 -20 -746 -149
-490 -513 -871 -987 -1031 -169 -57 -279 -74 -487 -74 -161 0 -206 4 -299 23
-405 87 -734 305 -965 642 -266 387 -338 896 -189 1345 160 483 574 871 1062
996 192 49 424 62 611 34z"/>
</g>
</svg>
